<svg width="48" height="48" viewBox="0 0 48 48" fill="none" xmlns="http://www.w3.org/2000/svg">
  <rect width="48" height="48" fill="black" />
  <path
    d="M20.2105 16.3262L19.5074 15.0469V7.9375H20.2105V16.3262ZM21.6168 18.7578L20.9137 17.5664V7.9375H21.6168V18.7578ZM11.9293 13.6113L12.6324 14.8906V22H11.9293V13.6113ZM10.523 11.082L11.2262 12.3711V22H10.523V11.082ZM10.7672 7.9375H11.5875L19.732 22H18.9117L10.7672 7.9375ZM12.4273 7.9375H13.2574L21.3922 22H20.5523L12.4273 7.9375ZM14.0777 7.9375H14.898L22.3199 20.7793V7.9375H23.023V22H22.193L14.0777 7.9375ZM9.81992 9.14844V22H9.1168V7.9375H9.95664L18.0719 22H17.2613L9.81992 9.14844ZM34.0395 15.0664C34.0395 14.2331 33.7823 13.5885 33.268 13.1328C32.7536 12.6771 32.0733 12.4492 31.227 12.4492C30.5108 12.4492 29.8956 12.6966 29.3812 13.1914C28.8669 13.6862 28.6098 14.2786 28.6098 14.9688C28.6098 15.3594 28.6618 15.7109 28.766 16.0234C28.8702 16.3294 29.0102 16.5866 29.1859 16.7949C29.3682 16.9967 29.5831 17.166 29.8305 17.3027C30.0779 17.4329 30.335 17.5273 30.602 17.5859C30.8754 17.6445 31.1651 17.6738 31.4711 17.6738C32.2133 17.6738 32.8904 17.4915 33.5023 17.127V17.8301C32.8708 18.1621 32.1905 18.3281 31.4613 18.3281C30.9926 18.3281 30.5499 18.2663 30.1332 18.1426C29.723 18.0124 29.3487 17.8203 29.0102 17.5664C28.6716 17.306 28.4014 16.9544 28.1996 16.5117C28.0043 16.0625 27.9066 15.5482 27.9066 14.9688C27.9066 14.0703 28.2224 13.3086 28.8539 12.6836C29.4854 12.0586 30.2764 11.7461 31.227 11.7461C32.2751 11.7461 33.1215 12.0423 33.766 12.6348C34.4171 13.2207 34.7426 14.0312 34.7426 15.0664V22H34.0395V15.0664ZM36.1488 15.0664V22H35.4457V15.0664C35.4457 13.8359 35.0518 12.8594 34.2641 12.1367C33.4763 11.4076 32.4639 11.043 31.227 11.043C30.0811 11.043 29.1241 11.4238 28.3559 12.1855C27.5876 12.9473 27.2035 13.875 27.2035 14.9688C27.2035 15.6328 27.3174 16.2285 27.5453 16.7559C27.7797 17.2832 28.0954 17.7064 28.4926 18.0254C28.8897 18.3444 29.3324 18.5885 29.8207 18.7578C30.3155 18.9206 30.8363 19.002 31.3832 19.002C32.1254 19.002 32.8318 18.8294 33.5023 18.4844V19.2266C32.7992 19.5195 32.0896 19.666 31.3734 19.666C30.7289 19.666 30.1169 19.5684 29.5375 19.373C28.9581 19.1712 28.4405 18.8815 27.9848 18.5039C27.529 18.1198 27.1677 17.625 26.9008 17.0195C26.6339 16.4076 26.5004 15.724 26.5004 14.9688C26.5004 13.6862 26.9529 12.5957 27.8578 11.6973C28.7693 10.7923 29.8923 10.3398 31.227 10.3398C32.1645 10.3398 33.0043 10.5319 33.7465 10.916C34.4887 11.2936 35.0746 11.8438 35.5043 12.5664C35.934 13.2891 36.1488 14.1224 36.1488 15.0664ZM37.5551 15.0664V22H36.852V15.0664C36.852 13.9922 36.6046 13.0417 36.1098 12.2148C35.6215 11.3815 34.9509 10.7435 34.098 10.3008C33.2452 9.85807 32.2881 9.63672 31.227 9.63672C30.2178 9.63672 29.2966 9.8776 28.4633 10.3594C27.6299 10.8346 26.9756 11.4792 26.5004 12.293C26.0316 13.1068 25.7973 13.9987 25.7973 14.9688C25.7973 15.8021 25.9503 16.5638 26.2562 17.2539C26.5622 17.9375 26.9724 18.5007 27.4867 18.9434C28.0076 19.3861 28.5967 19.7311 29.2543 19.9785C29.9184 20.2194 30.6117 20.3398 31.3344 20.3398C32.0701 20.3398 32.7927 20.1868 33.5023 19.8809V20.5938C32.7602 20.8737 32.031 21.0137 31.3148 21.0137C30.1885 21.0137 29.1534 20.7598 28.2094 20.252C27.2654 19.7441 26.5102 19.0247 25.9437 18.0938C25.3773 17.1628 25.0941 16.1211 25.0941 14.9688C25.0941 14.1484 25.2504 13.3672 25.5629 12.625C25.8819 11.8828 26.3116 11.2415 26.852 10.7012C27.3923 10.1608 28.0434 9.73112 28.8051 9.41211C29.5668 9.0931 30.3741 8.93359 31.227 8.93359C32.4184 8.93359 33.4926 9.1875 34.4496 9.69531C35.4131 10.2031 36.1716 10.9258 36.725 11.8633C37.2784 12.8008 37.5551 13.8685 37.5551 15.0664ZM38.9613 15.0664V22H38.2582V15.0664C38.2582 13.7383 37.949 12.5534 37.3305 11.5117C36.712 10.4635 35.8689 9.65625 34.8012 9.08984C33.7335 8.51693 32.5421 8.23047 31.227 8.23047C29.9639 8.23047 28.8083 8.5332 27.7602 9.13867C26.712 9.74414 25.8884 10.5645 25.2895 11.5996C24.6905 12.6283 24.391 13.7513 24.391 14.9688C24.391 15.7695 24.518 16.5312 24.7719 17.2539C25.0323 17.9701 25.3839 18.5983 25.8266 19.1387C26.2758 19.6725 26.7901 20.1348 27.3695 20.5254C27.9555 20.916 28.5837 21.2122 29.2543 21.4141C29.9314 21.6159 30.6182 21.7168 31.3148 21.7168C32.0831 21.7168 32.8122 21.5703 33.5023 21.2773V22C32.7797 22.2539 32.0375 22.3809 31.2758 22.3809C30.488 22.3809 29.7198 22.2702 28.9711 22.0488C28.2289 21.8275 27.5388 21.502 26.9008 21.0723C26.2693 20.6361 25.7126 20.125 25.2309 19.5391C24.7491 18.9466 24.3715 18.2565 24.098 17.4688C23.8246 16.681 23.6879 15.8477 23.6879 14.9688C23.6879 13.9596 23.8767 12.9993 24.2543 12.0879C24.6384 11.1699 25.1592 10.3789 25.8168 9.71484C26.4809 9.04427 27.2816 8.51367 28.2191 8.12305C29.1631 7.72591 30.1658 7.52734 31.227 7.52734C32.3077 7.52734 33.3233 7.70964 34.2738 8.07422C35.2243 8.4388 36.0447 8.94661 36.7348 9.59766C37.4249 10.2422 37.9685 11.0365 38.3656 11.9805C38.7628 12.9245 38.9613 13.9531 38.9613 15.0664ZM21.2164 32.7812L20.65 33.2109C20.0836 32.5078 19.3544 32.1562 18.4625 32.1562C17.6878 32.1562 17.0237 32.4329 16.4703 32.9863C15.9234 33.5332 15.65 34.194 15.65 34.9688C15.65 35.7435 15.9234 36.4076 16.4703 36.9609C17.0237 37.5078 17.6878 37.7812 18.4625 37.7812C18.8987 37.7812 19.3056 37.6868 19.6832 37.498C20.0673 37.3092 20.3928 37.0488 20.6598 36.7168L21.2066 37.1758C20.8811 37.5859 20.4775 37.9082 19.9957 38.1426C19.5139 38.3704 19.0029 38.4844 18.4625 38.4844C17.4924 38.4844 16.6624 38.1426 15.9723 37.459C15.2887 36.7689 14.9469 35.9388 14.9469 34.9688C14.9469 33.9987 15.2887 33.1719 15.9723 32.4883C16.6624 31.7982 17.4924 31.4531 18.4625 31.4531C19.0094 31.4531 19.5237 31.5736 20.0055 31.8145C20.4872 32.0488 20.8909 32.3711 21.2164 32.7812ZM22.3102 31.9023L21.7535 32.332C21.3629 31.8372 20.8779 31.4499 20.2984 31.1699C19.7255 30.89 19.1135 30.75 18.4625 30.75C17.2971 30.75 16.301 31.1634 15.4742 31.9902C14.6539 32.8171 14.2437 33.8099 14.2437 34.9688C14.2437 36.1276 14.6539 37.1204 15.4742 37.9473C16.301 38.7741 17.2971 39.1875 18.4625 39.1875C19.1135 39.1875 19.7288 39.0475 20.3082 38.7676C20.8876 38.4811 21.3727 38.0905 21.7633 37.5957L22.3004 38.0449C21.8447 38.6178 21.2815 39.0703 20.6109 39.4023C19.9404 39.7279 19.2242 39.8906 18.4625 39.8906C17.5706 39.8906 16.747 39.6725 15.9918 39.2363C15.2366 38.7936 14.6376 38.1947 14.1949 37.4395C13.7587 36.6842 13.5406 35.8607 13.5406 34.9688C13.5406 34.0768 13.7587 33.2533 14.1949 32.498C14.6376 31.7428 15.2366 31.1471 15.9918 30.7109C16.747 30.2682 17.5706 30.0469 18.4625 30.0469C19.2242 30.0469 19.9404 30.2129 20.6109 30.5449C21.288 30.8704 21.8544 31.3229 22.3102 31.9023ZM23.4137 31.0234L22.8668 31.4629C22.3395 30.8053 21.6917 30.2878 20.9234 29.9102C20.1552 29.5326 19.3349 29.3438 18.4625 29.3438C17.7008 29.3438 16.9716 29.4935 16.275 29.793C15.5849 30.0859 14.9859 30.4863 14.4781 30.9941C13.9768 31.4954 13.5764 32.0944 13.277 32.791C12.984 33.4811 12.8375 34.207 12.8375 34.9688C12.8375 35.7305 12.984 36.4596 13.277 37.1562C13.5764 37.8464 13.9768 38.4453 14.4781 38.9531C14.9859 39.4544 15.5849 39.8548 16.275 40.1543C16.9716 40.4473 17.7008 40.5938 18.4625 40.5938C19.3349 40.5938 20.1552 40.4049 20.9234 40.0273C21.6917 39.6497 22.3395 39.1322 22.8668 38.4746L23.3941 38.9336C22.8017 39.6693 22.0758 40.2487 21.2164 40.6719C20.357 41.0885 19.4391 41.2969 18.4625 41.2969C17.6031 41.2969 16.7828 41.1309 16.0016 40.7988C15.2203 40.4603 14.5465 40.0111 13.9801 39.4512C13.4202 38.8848 12.971 38.2109 12.6324 37.4297C12.3004 36.6484 12.1344 35.8281 12.1344 34.9688C12.1344 34.1094 12.3004 33.2891 12.6324 32.5078C12.971 31.7266 13.4202 31.056 13.9801 30.4961C14.5465 29.9297 15.2203 29.4805 16.0016 29.1484C16.7828 28.8099 17.6031 28.6406 18.4625 28.6406C19.4456 28.6406 20.3668 28.8522 21.2262 29.2754C22.0921 29.6986 22.8212 30.2812 23.4137 31.0234ZM24.5074 30.1445L23.941 30.5645C23.2835 29.7507 22.4762 29.1094 21.5191 28.6406C20.5686 28.1719 19.5497 27.9375 18.4625 27.9375C17.512 27.9375 16.6005 28.123 15.7281 28.4941C14.8622 28.8652 14.1135 29.3665 13.482 29.998C12.857 30.623 12.359 31.3717 11.9879 32.2441C11.6168 33.11 11.4312 34.0182 11.4312 34.9688C11.4312 35.9193 11.6168 36.8307 11.9879 37.7031C12.359 38.569 12.857 39.3177 13.482 39.9492C14.1135 40.5742 14.8622 41.0723 15.7281 41.4434C16.6005 41.8145 17.512 42 18.4625 42C19.5497 42 20.5686 41.7656 21.5191 41.2969C22.4762 40.8281 23.2835 40.1868 23.941 39.373L24.4977 39.8027C23.775 40.7012 22.8863 41.4108 21.8316 41.9316C20.7835 42.446 19.6604 42.7031 18.4625 42.7031C17.4143 42.7031 16.4117 42.498 15.4547 42.0879C14.5042 41.6777 13.6839 41.1276 12.9937 40.4375C12.3036 39.7474 11.7535 38.9271 11.3434 37.9766C10.9332 37.0195 10.7281 36.0169 10.7281 34.9688C10.7281 33.9206 10.9332 32.9212 11.3434 31.9707C11.7535 31.0137 12.3036 30.1901 12.9937 29.5C13.6839 28.8099 14.5042 28.2598 15.4547 27.8496C16.4117 27.4395 17.4143 27.2344 18.4625 27.2344C19.6604 27.2344 20.7867 27.4948 21.8414 28.0156C22.8961 28.5299 23.7848 29.2396 24.5074 30.1445ZM31.5102 35.3105H30.3969C29.0297 35.3105 27.9783 35.0339 27.2426 34.4805C26.5069 33.9206 26.1391 33.1523 26.1391 32.1758C26.1391 31.2643 26.572 30.5059 27.4379 29.9004C28.3038 29.2884 29.518 28.9824 31.0805 28.9824C32.1221 28.9824 33.0922 29.1257 33.9906 29.4121C34.8956 29.6986 35.6475 30.1022 36.2465 30.623L35.6996 31.0625C35.1658 30.6263 34.4952 30.2878 33.6879 30.0469C32.8806 29.806 32.0115 29.6855 31.0805 29.6855C29.7068 29.6855 28.6553 29.9199 27.9262 30.3887C27.2035 30.8574 26.8422 31.4531 26.8422 32.1758C26.8422 32.957 27.1384 33.5592 27.7309 33.9824C28.3298 34.3991 29.2185 34.6074 30.3969 34.6074H31.4711C32.8578 34.6074 33.919 34.8874 34.6547 35.4473C35.3969 36.0007 35.768 36.7656 35.768 37.7422C35.768 38.6536 35.335 39.4154 34.4691 40.0273C33.6033 40.6328 32.3891 40.9355 30.8266 40.9355C29.7849 40.9355 28.8116 40.7923 27.9066 40.5059C27.0082 40.2194 26.2595 39.8158 25.6605 39.2949L26.2074 38.8555C26.7413 39.2917 27.4118 39.6302 28.2191 39.8711C29.0264 40.112 29.8956 40.2324 30.8266 40.2324C32.2003 40.2324 33.2484 39.998 33.9711 39.5293C34.7003 39.0605 35.0648 38.4648 35.0648 37.7422C35.0648 36.9609 34.7654 36.362 34.1664 35.9453C33.574 35.5221 32.6885 35.3105 31.5102 35.3105ZM31.5102 36.7168H30.3969C28.587 36.7168 27.1905 36.3066 26.2074 35.4863C25.2243 34.6595 24.7328 33.556 24.7328 32.1758C24.7328 31.5443 24.8728 30.9518 25.1527 30.3984C25.4327 29.8451 25.8331 29.36 26.3539 28.9434C26.8812 28.5202 27.5518 28.1882 28.3656 27.9473C29.1794 27.6999 30.0844 27.5762 31.0805 27.5762C32.337 27.5762 33.5121 27.7682 34.6059 28.1523C35.6996 28.5299 36.6111 29.0605 37.3402 29.7441L36.7738 30.1641C36.1098 29.5651 35.2797 29.1029 34.2836 28.7773C33.2875 28.4453 32.2198 28.2793 31.0805 28.2793C29.3227 28.2793 27.9424 28.6504 26.9398 29.3926C25.9372 30.1348 25.4359 31.0625 25.4359 32.1758C25.4359 33.3542 25.8656 34.2884 26.725 34.9785C27.5844 35.6686 28.8083 36.0137 30.3969 36.0137H31.4711C33.3982 36.0137 34.3617 36.5898 34.3617 37.7422C34.3617 38.263 34.0655 38.6927 33.473 39.0312C32.8871 39.3633 32.0049 39.5293 30.8266 39.5293C29.9997 39.5293 29.2315 39.4349 28.5219 39.2461C27.8122 39.0508 27.2263 38.7741 26.7641 38.416L27.3207 37.9863C28.1345 38.5462 29.3031 38.8262 30.8266 38.8262C31.8031 38.8262 32.5193 38.7253 32.975 38.5234C33.4307 38.3216 33.6586 38.0612 33.6586 37.7422C33.6586 37.3711 33.4991 37.1074 33.1801 36.9512C32.8611 36.7949 32.3044 36.7168 31.5102 36.7168ZM31.5102 33.9043H30.3969C28.4958 33.9043 27.5453 33.3281 27.5453 32.1758C27.5453 31.6549 27.8383 31.2285 28.4242 30.8965C29.0167 30.5579 29.9021 30.3887 31.0805 30.3887C31.9073 30.3887 32.6755 30.4863 33.3852 30.6816C34.0948 30.8704 34.6807 31.1439 35.143 31.502L34.5863 31.9316C33.7725 31.3717 32.6039 31.0918 31.0805 31.0918C30.1039 31.0918 29.3878 31.1927 28.932 31.3945C28.4763 31.5964 28.2484 31.8568 28.2484 32.1758C28.2484 32.5469 28.4079 32.8105 28.727 32.9668C29.046 33.123 29.6026 33.2012 30.3969 33.2012H31.5102C33.3201 33.2012 34.7165 33.6146 35.6996 34.4414C36.6827 35.2617 37.1742 36.362 37.1742 37.7422C37.1742 38.3737 37.0342 38.9661 36.7543 39.5195C36.4743 40.0729 36.0707 40.5612 35.5434 40.9844C35.0225 41.401 34.3552 41.7331 33.5414 41.9805C32.7276 42.2214 31.8227 42.3418 30.8266 42.3418C29.5701 42.3418 28.3949 42.153 27.3012 41.7754C26.2074 41.3913 25.296 40.8574 24.5668 40.1738L25.1332 39.7539C25.7973 40.3529 26.6273 40.8184 27.6234 41.1504C28.6195 41.4759 29.6872 41.6387 30.8266 41.6387C32.5844 41.6387 33.9646 41.2676 34.9672 40.5254C35.9698 39.7832 36.4711 38.8555 36.4711 37.7422C36.4711 36.5638 36.0414 35.6296 35.182 34.9395C34.3227 34.2493 33.0987 33.9043 31.5102 33.9043Z"
    fill="white" />
</svg>